<?xml version="1.0" encoding="UTF-8"?>
<svg id="Layer_1" xmlns="http://www.w3.org/2000/svg" width="512" height="512" version="1.1" viewBox="0 0 512 512">
  <!-- Generator: Adobe Illustrator 30.2.1, SVG Export Plug-In . SVG Version: 2.1.1 Build 1)  -->
  <path d="M128.8,512h-6.9v-1.1c2.3.3,5.3,0,6.9,1.1Z" fill="#ec676a"/>
  <path d="M391.2,510.9v1.1h-6.9c1.7-1.1,4.7-.7,6.9-1.1Z" fill="#ec676a"/>
  <path d="M303.5,0h-173.7C94.3,0,65.5,28.8,65.5,64.3v383.5c0,35.5,28.8,64.3,64.3,64.3h253.9c35.5,0,64.3-28.8,64.3-64.3V152L303.5,0Z" fill="#e4252a"/>
  <path d="M303.5,0l144.4,152h-144.4V0Z" fill="#ec676a"/>
  <path d="M372.9,324h-33.9c0-.1.1-15.1.1-15.1h42.4v-20.4c-.1,0-66.4-.1-66.4-.1v93.6h23.9v-38h34v-20Z" fill="#fff"/>
  <path d="M295.5,363.3c10.5-17.9,10.3-39.7-.5-56.9-9.5-11.6-23.2-17.7-38.1-17.9h-35.6v93.3c28.7-1.1,54.3,6,74.3-18.7h0ZM273.5,353.3c-7.5,8.8-19.1,8.9-28.9,8.3v-52.3c9.9-.8,21.7-.7,28.9,8,7.9,9.5,8.1,26.3,0,36Z" fill="#fff"/>
  <path d="M190.3,346.9c13.2-3.5,21.2-14.9,21.1-28,.9-16.7-11.6-30.1-28.3-30.3l-43.6-.3v93.5h23.9v-33.3c9.5,0,18,.7,27.1-1.7h-.1ZM178.1,328h-14.8v-18.9c-.1,0,14.3,0,14.3,0,5.6,0,9.6,3.6,10,8.5.4,4.9-3.1,10.4-9.5,10.4Z" fill="#fff"/>
</svg>